<?xml version="1.0" encoding="UTF-8"?>
<svg width="93.083mm" height="16.88mm" version="1.1" viewBox="0 0 93.083 16.88" xmlns="http://www.w3.org/2000/svg">
 <path d="m23.622 13.9q-0.8382 0-1.6609-0.15523-0.80716-0.17074-1.5212-0.51223v-2.0489q0.86925 0.43462 1.6764 0.65193 0.80716 0.20179 1.5677 0.20179 0.80716 0 1.3194-0.26388 0.51223-0.2794 0.51223-0.99342 0-0.49671-0.2794-0.77611-0.26388-0.2794-0.77611-0.52776-0.51224-0.26388-1.2263-0.63641-0.71402-0.38806-1.3039-0.8382-0.58984-0.45015-0.93133-1.0555-0.34149-0.62089-0.34149-1.4901 0-1.4901 0.99342-2.2197 1.0089-0.72954 2.6388-0.72954 0.65193 0 1.5522 0.15522 0.90029 0.1397 1.7695 0.5588l-0.71402 1.754q-0.76059-0.32596-1.3815-0.46566-0.62089-0.1397-1.1021-0.1397-0.76059 0-1.1176 0.31044-0.34149 0.31045-0.34149 0.88477 0 0.45014 0.21731 0.72954t0.65193 0.51224q0.43462 0.21731 1.1021 0.5588 0.91581 0.45014 1.5522 0.88476 0.65193 0.4191 0.99342 0.9779t0.34149 1.428q0 1.071-0.52776 1.8006-0.51223 0.71402-1.4591 1.0866-0.94685 0.35701-2.2042 0.35701z" fill="#f4f4f4" stroke-width=".26458" style="white-space:pre"/>
 <path d="m32.128 13.9q-1.3349 0-2.0179-0.6985-0.66746-0.71403-0.66746-1.9092 0-1.428 0.90029-2.08 0.91581-0.65193 2.6233-0.6985l1.8627-0.0466v-0.37254q0-1.1797-1.6919-1.1797-1.071 0-2.4525 0.51224l-0.72954-1.5678q1.4746-0.74507 3.2597-0.74507 1.8006 0 2.7785 0.74507 0.9779 0.72955 0.9779 2.2352v5.6501h-1.7074l-0.35701-1.071h-0.06209q-0.57432 0.66746-1.2573 0.94686t-1.4591 0.2794zm0.79163-1.7695q0.79163 0 1.3504-0.43462t0.5588-1.1797v-0.6985l-1.2883 0.031q-0.93133 0.0155-1.428 0.32597-0.48119 0.29492-0.48119 0.91581 0 0.5588 0.37253 0.80716 0.37253 0.23283 0.91581 0.23283z" fill="#f4f4f4" stroke-width=".26458" style="white-space:pre"/>
 <path d="m44.052 13.9q-1.6454 0-2.4836-0.72955-0.82267-0.72954-0.82267-2.3439v-3.6943h-1.9403v-1.397l2.111-0.46566 0.37253-2.111h1.7074v2.111h3.1821v1.8627h-3.1821v3.4615q0 0.60537 0.20179 0.91581 0.20179 0.29493 0.54328 0.40358 0.34149 0.10866 0.74506 0.10866 0.37254 0 0.76059-0.0621 0.38806-0.0621 1.009-0.17075v1.7695q-0.57433 0.18626-1.1331 0.26388-0.54327 0.0776-1.071 0.0776z" fill="#f4f4f4" stroke-width=".26458" style="white-space:pre"/>
 <path d="m51.512 13.9q-0.76059 0-1.5057-0.10866-0.72954-0.10865-1.4746-0.38805v-2.0955q0.66746 0.29493 1.5057 0.51224 0.8382 0.20179 1.7385 0.20179 0.58984 0 0.93133-0.1397 0.34149-0.15523 0.34149-0.49672 0-0.43462-0.51223-0.65193-0.51224-0.21731-1.5057-0.60537-0.6985-0.2794-1.2573-0.57432-0.54328-0.31044-0.86924-0.76059-0.31045-0.46566-0.31045-1.1952 0-0.86924 0.43462-1.4125 0.45015-0.5588 1.2263-0.80716 0.77611-0.26388 1.8006-0.26388 0.82268 0 1.6609 0.17075 0.8382 0.15522 1.6298 0.49671l-0.6985 1.723q-0.71402-0.26388-1.366-0.40358-0.63642-0.1397-1.3039-0.1397-0.51224 0-0.80716 0.12418-0.2794 0.12417-0.2794 0.43462 0 0.4191 0.48119 0.63641 0.49671 0.20179 1.3815 0.51223 0.6985 0.24836 1.2883 0.5588 0.58985 0.31045 0.94686 0.82268 0.37253 0.49671 0.37253 1.3504 0 1.3039-0.9779 1.9092-0.96237 0.58985-2.8716 0.58985z" fill="#f4f4f4" stroke-width=".26458" style="white-space:pre"/>
 <path d="m57.542 13.75v-1.397l2.794-0.46566v-8.0716l-2.2507-0.46567v-1.397h4.5014v9.9342l2.5612 0.46566v1.397z" fill="#f4f4f4" stroke-width=".26458" style="white-space:pre"/>
 <path d="m70.812 4.31q-1.3504 0-1.3504-1.3039t1.3815-1.3039q1.366 0 1.366 1.2884 0 1.3194-1.397 1.3194zm-3.9582 9.4375v-1.397l2.825-0.46566v-4.7498l-2.4059-0.26387v-1.5988h4.6567v6.6125l2.5301 0.46566v1.397z" fill="#f4f4f4" stroke-width=".26458" style="white-space:pre"/>
 <path d="m80.492 13.9q-2.1421 0-3.1665-1.071-1.009-1.0866-1.009-3.2131 0-2.2042 1.0555-3.3528 1.071-1.1486 3.1976-1.1486 0.63642 0 1.3504 0.12418 0.71402 0.10866 1.3815 0.40358l-0.65194 1.7851q-0.62089-0.24836-1.1331-0.32597-0.51223-0.0776-0.82268-0.0776-2.0955 0-2.0955 2.5146 0 1.2883 0.54328 1.8782 0.5588 0.57432 1.5833 0.57432 0.48119 0 1.0555-0.1397 0.58984-0.15522 1.2573-0.5588v2.0179q-0.66746 0.34149-1.2728 0.46567-0.60537 0.12418-1.2728 0.12418z" fill="#f4f4f4" stroke-width=".26458" style="white-space:pre"/>
 <path d="m89.992 13.9q-2.2352 0-3.4614-1.1486-1.2107-1.1486-1.2107-3.2907 0-1.3194 0.46567-2.2973t1.366-1.5057q0.90028-0.54328 2.1731-0.54328 1.8006 0 2.7785 1.04t0.9779 2.8871v1.1176h-5.5725q0.031 0.62089 0.37253 1.0555 0.35701 0.4191 0.94686 0.63641 0.58984 0.20179 1.2883 0.20179 0.60537 0 1.2728-0.1397 0.68298-0.15522 1.4436-0.43462v1.8161q-0.68298 0.34149-1.4125 0.46567-0.71402 0.1397-1.428 0.1397zm1.071-5.2776q-0.0155-0.82268-0.49671-1.3039-0.46567-0.48119-1.1952-0.48119-0.71402 0-1.2262 0.46567-0.51224 0.45014-0.58985 1.3194z" fill="#f4f4f4" stroke-width=".26458" style="white-space:pre"/>
 <path d="m9.054 6.43-4.527 2.6139-4.527 2.6135 4.527 2.6139 4.527 2.6135 4.5273-2.6135 4.527-2.6139-4.527-2.6135z" fill="#2c4b7b" stroke-linejoin="round" stroke-width=".022768"/>
 <path d="m9.054 3.21-4.527 2.6139-4.527 2.6135 4.527 2.6139 4.527 2.6135 4.5273-2.6135 4.527-2.6139-4.527-2.6135z" fill="#618ac9" stroke-linejoin="round" stroke-width=".022768"/>
 <path d="m9.054 0-4.527 2.6139-4.527 2.6135 4.527 2.6139 4.527 2.6135 4.5273-2.6135 4.527-2.6139-4.527-2.6135z" fill="#bed0d9" stroke-linejoin="round" stroke-width=".022768"/>
</svg>
